<?xml version="1.0" encoding="UTF-8" standalone="no"?>
<!-- Created with Inkscape (http://www.inkscape.org/) -->

<svg
   version="1.1"
   id="svg1"
   width="682.66669"
   height="682.66669"
   viewBox="0 0 682.66669 682.66669"
   xmlns="http://www.w3.org/2000/svg"
   xmlns:svg="http://www.w3.org/2000/svg">
  <defs
     id="defs1" />
  <g
     id="g1">
    <path
       style="fill:#000000"
       d="M 390.66668,681.23417 C 259.42497,668.11803 133.92814,585.3464 59.616048,462.8892 28.999706,412.43723 8.9879783,354.82691 2.5711177,298.66668 0.54834985,280.96345 0.55435757,241.69809 2.5822359,226.00001 14.866382,130.90678 69.093636,56.726475 152.01067,21.589027 250.41434,-20.11114 380.22443,0.31561557 487.33335,74.354989 c 32.35795,22.367533 76.86473,63.858891 101.16587,94.311681 48.55087,60.84116 79.44784,129.30558 90.85872,201.33334 2.98888,18.86637 4.08685,63.41594 2.02347,82.10111 -8.80173,79.70513 -47.06809,145.23036 -108.86914,186.42159 -32.27101,21.50906 -68.61429,35.11156 -109.16001,40.8562 -17.38106,2.4626 -56.59354,3.46348 -72.68558,1.85526 z M 452.61266,651.943 c 68.58487,-7.85677 126.38488,-41.94431 162.68424,-95.94298 50.0423,-74.44257 51.34223,-183.80669 3.38577,-284.8461 C 584.21817,198.54071 523.32594,130.74733 453.65946,87.427999 346.26137,20.646759 222.96002,10.820628 136.95325,62.189047 52.979329,112.34333 14.873042,209.36173 35.38726,320.77553 c 9.266878,50.3289 30.574985,100.97612 61.624075,146.4742 54.116875,79.30068 133.398485,140.43211 218.750945,168.67164 20.4102,6.75287 51.38889,13.75068 70.23773,15.86608 15.06186,1.69038 52.45227,1.7777 66.61265,0.15555 z M 605.63345,425.37655 c -5.60994,-3.48307 -6.36417,-5.67783 -8.28277,-24.10226 C 590.0603,331.26443 557.402,263.1273 503.59012,205.65553 489.44266,190.54586 487.43974,186.19608 491.24309,178.8412 c 2.78805,-5.39149 7.57023,-8.44119 13.23647,-8.44119 6.0624,0 9.03361,2.15437 20.97076,15.20554 58.77234,64.25722 94.11721,138.48686 101.23367,212.6062 1.3641,14.20739 1.29445,16.76405 -0.56332,20.67903 -3.85198,8.11743 -13.12899,11.05431 -20.48722,6.48577 z M 114.3468,283.25623 c -20.425537,-4.95065 -35.649958,-18.87106 -42.567073,-38.92108 -4.39749,-12.74662 -4.399375,-36.30946 -0.0041,-51.66848 7.047248,-24.62635 22.139518,-49.93634 42.622217,-71.47815 32.15081,-33.813255 70.65607,-53.215982 105.52272,-53.172693 20.72333,0.02573 34.20116,4.886616 46.85656,16.899194 12.69229,12.047597 18.51345,27.118909 18.54043,48.002249 0.0422,32.68302 -16.49086,68.05173 -46.4188,99.30231 -38.26364,39.95467 -87.32712,60.05902 -124.55192,51.03665 z"
       id="path1" />
  </g>
</svg>
