<?xml version="1.0" encoding="UTF-8" standalone="no"?>
<!-- Created with Inkscape (http://www.inkscape.org/) -->

<svg
   width="55mm"
   height="85mm"
   viewBox="0 0 207.87403 321.25985"
   version="1.1"
   id="svg1"
   xml:space="preserve"
   inkscape:version="1.3.2 (091e20e, 2023-11-25, custom)"
   sodipodi:docname="bird_02.svg"
   xmlns:inkscape="http://www.inkscape.org/namespaces/inkscape"
   xmlns:sodipodi="http://sodipodi.sourceforge.net/DTD/sodipodi-0.dtd"
   xmlns="http://www.w3.org/2000/svg"
   xmlns:svg="http://www.w3.org/2000/svg"><sodipodi:namedview
     id="namedview1"
     pagecolor="#ffffff"
     bordercolor="#000000"
     borderopacity="0.25"
     inkscape:showpageshadow="2"
     inkscape:pageopacity="0.0"
     inkscape:pagecheckerboard="0"
     inkscape:deskcolor="#d1d1d1"
     inkscape:document-units="mm"
     inkscape:zoom="1.4778115"
     inkscape:cx="293.33917"
     inkscape:cy="325.14295"
     inkscape:window-width="2560"
     inkscape:window-height="1369"
     inkscape:window-x="-8"
     inkscape:window-y="-8"
     inkscape:window-maximized="1"
     inkscape:current-layer="layer1" /><defs
     id="defs1" /><g
     inkscape:label="Layer 1"
     inkscape:groupmode="layer"
     id="layer1"><path
       d="m 34.390686,304.64607 c -0.33463,-3.7125 -0.94073,-8.55 -1.34688,-10.75 l -0.73845,-4 -3.16859,5.5 c -1.74272,3.025 -4.8282,7.075 -6.85662,9 l -3.68804,3.5 0.67712,-6.5 c 0.37241,-3.575 0.89487,-8.3 1.16101,-10.5 0.42293,-3.49593 0.32171,-3.76259 -0.8032,-2.11603 -2.70907,3.96532 -6.0711,7.69765 -7.73707,8.58925 -1.58187,0.8466 -1.53292,0.0348 0.55719,-9.23988 2.12165,-9.41471 2.30719,-12.62734 0.5884,-10.18829 -1.29826,1.8423 -7.3433098,6.45495 -8.4594398,6.45495 -0.61071,0 0.0505,-1.2375 1.46926,-2.75 4.7189498,-5.03062 9.0681798,-15.75951 15.7092398,-38.75235 1.75901,-6.09009 3.0829,-8.21888 10.16198,-16.3402 4.47671,-5.13582 12.78571,-13.98972 18.46443,-19.67533 7.59523,-7.60444 10.60557,-11.34802 11.38635,-14.15979 1.2562,-4.52386 1.34652,-6.30643 0.32255,-6.36589 -0.4125,-0.024 -2.6625,-0.41353 -5,-0.86572 -4.0671,-0.7868 -4.25,-0.71676 -4.25,1.6274 0,2.29261 -0.25642,2.17459 -4.00155,-1.8417 -2.93146,-3.14371 -3.83836,-4.8375 -3.39131,-6.33385 1.08119,-3.61892 7.4811,-9.30905 13.51675,-12.01769 3.23186,-1.45037 5.87467,-2.94931 5.87292,-3.33096 -0.0167,-3.62767 -3.69617,-20.08356 -6.38527,-28.55718 -3.26288,-10.28166 -3.32085,-10.75564 -2.00131,-16.36256 2.60888,-11.08545 7.2678,-40.871717 8.33272,-53.274201 1.74601,-20.33493 2.12117,-22.63681 3.33567,-20.46663 0.57475,1.02703 1.26008,6.33385 1.52296,11.79293 0.26287,5.45908 0.8097,9.30643 1.21517,8.54965 0.40548,-0.75677 3.0831,-11.16497 5.95027,-23.12932 2.86718,-11.96436 5.6051,-21.51107 6.08428,-21.21492 1.74291,1.07717 2.11389,7.50325 0.95011,16.45747 -0.65448,5.03559 -1.01969,9.32587 -0.81159,9.53397 0.2081,0.2081 2.33946,-4.88698 4.736364,-11.32239 9.20666,-24.718847 10.26265,-27.2020865 11.29607,-26.5633965 1.82217,1.1261695 0.0857,13.3891065 -3.21645,22.7149465 -1.72399,4.86877 -2.99306,8.98553 -2.82016,9.14835 0.1729,0.16283 4.58936,-7.79797 9.81436,-17.69067 l 9.5,-17.9867163 0.30984,4.7120198 c 0.37667,5.7282865 -2.67323,16.2576465 -7.46566,25.7741265 -1.9099,3.79255 -3.31558,7.05251 -3.12374,7.24435 0.19184,0.19184 4.60822,-5.11346 9.81418,-11.78956 5.20596,-6.6761 10.09619,-12.33945 10.86717,-12.58521 2.41889,-0.77108 0.51492,5.24189 -3.81739,12.05581 -3.62906,5.70782 -3.83403,6.38437 -2.41073,7.95709 1.11289,1.22974 1.38019,2.79872 0.93931,5.51349 -0.33894,2.08704 -1.01885,7.61961 -1.51091,12.29461 -0.49206,4.675 -1.03692,8.95 -1.21081,9.5 -0.17389,0.55 0.20818,1.9432 0.84905,3.096004 0.64087,1.15279 1.41972,7.22779 1.73079,13.5 0.50801,10.24335 1.40712,15.211385 4.63728,25.623057 0.54928,1.77048 0.92262,5.82048 0.82964,9 -0.093,3.17952 0.38964,7.13095 1.07248,8.78095 1.36824,3.30615 1.9312,18.27039 0.86527,23 -0.37187,1.65 -0.94476,4.51234 -1.2731,6.36076 l -0.59697,3.36076 3.62799,-0.68062 c 14.19234,-2.66249 47.61374,-14.62723 64.38024,-23.0479 4.9204,-2.47115 9.1801,-4.493 9.4661,-4.493 2.0673,0 -1.4442,3.56037 -14.978,15.18652 -8.5239,7.32242 -15.4989,13.91902 -15.5,14.65911 0,1.68827 2.9112,5.88253 9.6989,13.96128 2.9145,3.4688 5.2991,6.78881 5.2991,7.37781 0,0.70532 -1.4509,0.82694 -4.25,0.35626 -2.3375,-0.39305 -15.8321,-0.87065 -29.9879,-1.06132 -14.1559,-0.19067 -26.14239,-0.59664 -26.63672,-0.90215 -1.12884,-0.69766 -3.48549,2.03085 -2.76332,3.19934 0.29384,0.47545 -0.34242,2.30604 -1.41391,4.06798 -1.0715,1.76193 -1.94818,4.74109 -1.94818,6.62034 0,1.87924 -0.42037,3.67661 -0.93415,3.99415 -0.51379,0.31754 -0.6812,2.13612 -0.37204,4.0413 0.42601,2.62515 0.17015,3.61437 -1.05661,4.08512 -2.80927,1.07802 -8.32204,9.68701 -10.0482,15.69174 -1.4209,4.94282 -2.34655,6.2701 -6.40729,9.18746 -5.33112,3.83003 -10.50348,9.82281 -11.68148,13.53436 -0.948344,2.98795 -8.213354,13.00071 -9.433004,13.00071 -0.84593,0 -3.84023,4.23798 -7.24335,10.25184 -0.92188,1.6291 -2.60413,3.9498 -3.73835,5.15712 -1.13422,1.20732 -2.52504,4.64671 -3.09072,7.64309 -0.59098,3.13034 -2.29758,7.21914 -4.01166,9.61143 -1.64073,2.28991 -2.98315,4.96573 -2.98315,5.94625 0,1.89625 -4.78065,9.39027 -5.99032,9.39027 -0.39508,0 -1.69278,-3.2625 -2.88377,-7.25 -2.77162,-9.27949 -4.47813,-11.93478 -3.78611,-5.89107 0.77331,6.7536 -0.2885,10.72114 -4.04313,15.10759 -1.89888,2.21841 -3.83163,4.03348 -4.295,4.03348 -0.46336,0 -1.11627,-3.0375 -1.45091,-6.75 z"
       style="fill:#000000"
       id="path1-5" /></g></svg>
