<?xml version="1.0" encoding="UTF-8" standalone="no"?>
<!-- Created with Inkscape (http://www.inkscape.org/) -->

<svg
   width="90mm"
   height="140mm"
   viewBox="0 0 90 140"
   version="1.1"
   id="svg1"
   inkscape:version="1.3.2 (091e20e, 2023-11-25, custom)"
   sodipodi:docname="bird_01.svg"
   xmlns:inkscape="http://www.inkscape.org/namespaces/inkscape"
   xmlns:sodipodi="http://sodipodi.sourceforge.net/DTD/sodipodi-0.dtd"
   xmlns="http://www.w3.org/2000/svg"
   xmlns:svg="http://www.w3.org/2000/svg">
  <sodipodi:namedview
     id="namedview1"
     pagecolor="#ffffff"
     bordercolor="#000000"
     borderopacity="0.25"
     inkscape:showpageshadow="2"
     inkscape:pageopacity="0.0"
     inkscape:pagecheckerboard="0"
     inkscape:deskcolor="#d1d1d1"
     inkscape:document-units="mm"
     inkscape:zoom="0.52248527"
     inkscape:cx="182.78027"
     inkscape:cy="601.93085"
     inkscape:window-width="2560"
     inkscape:window-height="1369"
     inkscape:window-x="-8"
     inkscape:window-y="-8"
     inkscape:window-maximized="1"
     inkscape:current-layer="layer1" />
  <defs
     id="defs1" />
  <g
     inkscape:label="Layer 1"
     inkscape:groupmode="layer"
     id="layer1">
    <path
       style="fill:#000000;stroke-width:0.264583"
       d="m 34.428505,135.22323 c -0.88905,-0.49493 -2.5183,-1.27531 -3.62057,-1.73418 -1.10226,-0.45888 -2.54305,-1.30871 -3.20176,-1.88853 -1.43277,-1.26117 -7.040487,-8.89383 -9.083332,-12.36331 -3.25809,-5.5334 -6.642381,-13.90599 -7.46582,-18.47013 -0.161514,-0.895245 -0.595169,-2.502585 -0.963676,-3.571875 -1.2809664,-3.71697 -0.8650654,-6.17214 1.681488,-9.92623 1.514412,-2.23251 2.565633,-4.43662 3.204647,-6.7192 0.886034,-3.16494 1.035256,-2.92999 -2.745012,-4.32214 -4.0204264,-1.4806 -4.1448024,-1.49206 -3.9185804,-0.36095 0.171114,0.85557 0.17072,0.85593 -0.469636,0.4326 -1.414573,-0.93517 -2.212665,-3.70937 -1.597204,-5.55194 0.164666,-0.49297 1.060987,-1.67022 1.991825,-2.61611 1.705176,-1.73274 2.7354274,-2.31506 6.5796804,-3.71898 2.036632,-0.74378 2.383626,-1.3213 2.521063,-4.19593 0.143746,-3.00654 -0.34844,-4.8758 -2.225251,-8.45124 -1.413881,-2.69353 -1.472938,-2.88553 -1.356463,-4.40986 0.160438,-2.09966 1.237432,-4.60452 3.776323,-8.78288 4.784873,-7.87469 9.924108,-14.6584 14.795768,-19.530184 1.75108,-1.751129 4.66331,-4.819708 6.47164,-6.819064 3.05125,-3.3736087 6.0294,-6.1680007 6.29285,-5.9045597 0.0617,0.06169 -0.20151,0.73116 -0.58487,1.487701 -0.38338,0.756545 -0.65336,1.419217 -0.59996,1.472608 0.0534,0.05339 0.98411,-0.571736 2.0683,-1.389163 2.16712,-1.633927 5.09267,-3.153532 5.23726,-2.720385 0.0501,0.149955 -0.0988,0.5623 -0.33072,0.916318 -0.58934,0.899427 -0.55272,1.280165 0.09,0.936183 0.66987,-0.358505 1.86949,-0.352057 1.86949,0.01005 0,0.156171 -0.47625,0.711483 -1.05833,1.23403 -1.12417,1.009169 -1.30623,1.392444 -0.66146,1.392444 0.5376,0 0.48998,0.5249437 -0.11957,1.3182547 -0.31316,0.407601 -0.41481,0.765024 -0.26791,0.942046 0.15086,0.181761 -0.14388,0.745847 -0.81238,1.554824 -0.577,0.698267 -1.0491,1.550704 -1.0491,1.894305 0,0.387345 -0.30163,0.847718 -0.79375,1.211572 -0.43656,0.322766 -0.79375,0.785821 -0.79375,1.02901 0,0.243192 -0.3497,1.09746 -0.77708,1.898375 -0.52083,0.976011 -0.68937,1.543927 -0.51107,1.722216 0.30509,0.305084 -0.23016,1.769579 -1.08601,2.971529 -0.64082,0.89992 -0.66278,1.06829 -0.13938,1.06829 0.60748,0 0.47834,0.82482 -0.43458,2.77566 -0.6391,1.36573 -0.75322,1.82507 -0.49334,1.98568 0.46024,0.28445 0.1556,1.40506 -0.80949,2.97772 -0.42418,0.69122 -0.68305,1.25859 -0.57526,1.26082 0.10779,0.002 0.3551,0.1049 0.54954,0.22816 0.27932,0.17704 0.17468,0.54105 -0.49827,1.73343 -0.74805,1.3255 -0.81147,1.58466 -0.52078,2.12786 0.18206,0.3402 0.25252,0.7456 0.15656,0.90088 -0.096,0.15529 0.01,0.5631 0.23429,0.90625 0.22484,0.34315 0.33586,0.69684 0.24672,0.78599 -0.0891,0.0891 0.089,0.51474 0.39595,0.94576 0.62339,0.87549 0.72967,1.79131 0.2273,1.95876 -0.2142,0.0714 -0.0156,0.46917 0.56394,1.12918 l 0.89463,1.01893 -0.58409,0.47299 c -0.53906,0.43649 -0.55293,0.51751 -0.17965,1.05044 0.30117,0.42996 0.33446,0.70832 0.13033,1.08973 -0.18534,0.34631 -0.18828,0.74021 -0.009,1.21587 0.14582,0.38698 0.27716,0.88219 0.29187,1.10047 0.10456,1.55154 0.20963,2.31618 0.34927,2.54213 0.0888,0.1437 0.0614,0.42321 -0.061,0.62114 -0.12594,0.20378 -0.10149,0.62525 0.0564,0.97172 0.2018,0.44284 0.19283,0.71542 -0.0324,0.98684 -0.20254,0.24404 -0.26585,1.00381 -0.18132,2.17574 0.0792,1.09726 0.018,1.93567 -0.15674,2.14614 -0.20706,0.24948 -0.19587,0.56458 0.0403,1.13463 0.17981,0.43408 0.25717,0.97101 0.17192,1.19317 -0.0853,0.22215 -0.0534,0.67119 0.0708,0.99785 0.19461,0.51186 0.80593,0.73586 4.42434,1.6212 2.3092,0.56501 4.97245,1.31828 5.91833,1.67393 1.2614,0.47428 2.60136,0.7089 5.02709,0.88021 5.9627,0.42108 8.52556,0.31563 13.77497,-0.56679 2.9872,-0.50214 5.95508,-0.83547 7.65628,-0.8599 2.67298,-0.0384 2.78127,-0.0179 2.86075,0.54077 0.0614,0.43161 -0.19325,0.76321 -0.99219,1.29193 -0.59113,0.3912 -1.07481,0.81635 -1.07481,0.94477 0,0.12842 0.42727,0.87702 0.94951,1.66355 1.2506,1.88355 1.14474,2.30663 -0.68768,2.74851 -2.2393,0.53999 -2.37617,0.80901 -1.226,2.40994 0.5303,0.73814 0.96417,1.52334 0.96417,1.74489 0,1.35453 -3.59283,1.05835 -11.64167,-0.95971 -4.75223,-1.19152 -5.85264,-1.37602 -8.88558,-1.48982 -2.38152,-0.0894 -4.32157,-0.002 -6.21771,0.27972 -1.51585,0.22528 -4.00624,0.4795 -5.53421,0.56494 -2.12556,0.11884 -6.95463,0.9838 -7.62511,1.36576 -0.0465,0.0265 0.062,0.28261 0.24096,0.5692 0.27196,0.4355 0.23011,0.6753 -0.25487,1.46003 -0.36523,0.59094 -0.47906,1.00153 -0.30711,1.1078 0.43699,0.27007 0.31811,1.17631 -0.29808,2.27269 -0.45124,0.80288 -0.50519,1.09613 -0.25675,1.39548 0.25133,0.30282 0.17375,0.54633 -0.38597,1.21153 -0.55491,0.65945 -0.66628,1.00384 -0.53573,1.65659 0.12782,0.63906 0.0135,1.02238 -0.50895,1.70742 -0.55295,0.72495 -0.62164,0.98072 -0.38312,1.4264 0.24686,0.46127 0.16883,0.64994 -0.51816,1.25275 -0.90546,0.79452 -0.99618,1.16527 -0.40521,1.65572 0.36044,0.29915 0.35671,0.38667 -0.0349,0.8194 -0.24114,0.26646 -0.66259,0.55561 -0.93657,0.64257 -0.27395,0.087 -0.4304,0.26764 -0.34766,0.40153 0.0828,0.13389 0.0412,0.43865 -0.0923,0.67725 -0.15264,0.27276 -0.1341,0.72169 0.0499,1.20926 0.25443,0.67402 0.21913,0.83386 -0.26987,1.22193 -0.76526,0.60735 -1.04066,2.256925 -0.50459,3.022295 0.60034,0.85708 0.54049,2.33427 -0.10136,2.50212 -0.83439,0.21819 -0.82042,0.72936 0.0669,2.44881 l 0.84087,1.6295 -0.59222,0.48887 c -0.54379,0.4489 -0.57031,0.59378 -0.32437,1.77188 0.59846,2.86659 0.60108,3.11174 0.0389,3.62047 -0.48855,0.44214 -0.50236,0.55596 -0.16547,1.36231 0.20222,0.48393 0.47948,1.37756 0.61614,1.98586 0.21153,0.94147 0.17552,1.16846 -0.24204,1.526 -0.4753,0.40696 -0.47046,0.45429 0.15539,1.52224 0.74242,1.26683 0.81891,2.14585 0.24217,2.78312 -0.36446,0.40273 -0.33729,0.57429 0.27913,1.7624 0.58786,1.13307 0.63905,1.41247 0.36785,2.00765 -0.27,0.59263 -0.21058,0.93717 0.41606,2.41155 0.75552,1.77767 0.7448,2.54204 -0.0356,2.54204 -0.39941,0 -0.38936,0.0684 0.0875,0.59531 0.29631,0.32742 0.60122,0.83344 0.67757,1.12448 0.0763,0.29104 0.23175,0.75624 0.34537,1.03377 0.19301,0.4715 0.10694,0.49432 -1.3121,0.34786 l -1.51868,-0.15674 0.41608,0.63502 c 0.22884,0.34926 0.41606,0.69873 0.41606,0.77661 0,0.40616 -1.37898,0.0307 -2.80707,-0.76432 z"
       id="path1"
       sodipodi:nodetypes="ssssssssssssssssssssssssssssssssssssssssssscsssscsssccssscsssssscssssssssssssssssssssssssssscsssssssssssscscsssssssssssssscssss" />
  </g>
</svg>
